<?xml version="1.0" encoding="UTF-8"?>
<svg id="Layer_1" xmlns="http://www.w3.org/2000/svg" version="1.1" viewBox="0 0 244.51 51.09">
  <!-- Generator: Adobe Illustrator 29.8.3, SVG Export Plug-In . SVG Version: 2.1.1 Build 3)  -->
  <defs>
    <style>
      .st0 {
        fill: #d24637;
      }

      .st1 {
        fill: #fff;
      }
    </style>
  </defs>
  <path class="st0" d="M51.09,25.55c0,14.11-11.44,25.55-25.55,25.55S0,39.66,0,25.55,11.44,0,25.55,0s25.55,11.44,25.55,25.55"/>
  <path class="st1" d="M24.71,40.22c-3.49,0-6.64-2.86-9.36-8.49-.29-.61-7.2-14.96-7.7-16.1-.02-.05-.03-.1-.04-.15,0-.08,0-.16.03-.23.05-.12.13-.22.25-.28,1.56-.82,3.4-1.25,5.33-1.25,4.47,0,8.46,2.29,10.39,5.98l4.7,9.69c1.02,2.35,2.29,3.58,3.7,3.58.51,0,.93-.16,1.2-.3h.03c.07-.04.14-.06.21-.06h0c.14,0,.27.06.37.16h0s.07.09.1.15c.03.06.04.13.04.2h0c0,.09-.02.17-.06.24-.93,1.79-4.59,6.86-9.18,6.86M34.09,31.05c-.94,0-1.85-.54-2.63-1.55-1.37-1.77-2.89-5.18-4.24-8.18h0c-.06-.13-.06-.28,0-.41,1.88-4.52,5.73-7.22,10.3-7.22,1.84,0,3.82.42,5.89,1.24h.02c.18.09.3.27.3.48,0,.02,0,.03,0,.05,0,.05-.02.11-.04.16,0,0-.01.02-.01.03l-6.65,13.12c-.75,1.48-1.79,2.29-2.93,2.29"/>
  <g>
    <rect class="st1" x="191.97" y="6.81" width="4.62" height="4.91"/>
    <path class="st1" d="M242.46,15.86c-1.18-1.18-2.98-1.75-5.49-1.75h-9.56c-.86,0-2.84.4-2.84,4.07v18.91h4.35v-18.37c0-.36.12-.79.68-.79h7.68c.86,0,2.74.96,2.74,3.83v15.33h4.48v-16.6c0-2.11-1.48-4.05-2.04-4.62Z"/>
    <path class="st1" d="M134.3,32.48c0,.36-.12.79-.68.79h-7.68c-.86,0-2.74-.96-2.74-3.83v-15.33h-4.48v16.6c0,2.11,1.48,4.05,2.04,4.62.43.43,1.76,1.75,5.49,1.75h9.56c.86,0,2.84-.4,2.84-4.07V14.11h-4.35v18.37Z"/>
    <path class="st1" d="M73.51,14.11h-4.79c-3.99,0-6.89,3.06-6.89,7.29v15.77h4.62v-15.64c0-2.05,1.6-3.65,3.65-3.65h3.4v-3.77Z"/>
    <path class="st1" d="M91.03,27.21c3.14-.1,3.57-2.95,3.57-5.73,0-4.48-3.9-7.73-9.28-7.73h-3.37c-4.95,0-8.54,4.08-8.54,9.7v3.75c0,5.78,1.96,7.47,2.9,8.28,1.31,1.13,3.07,1.69,5.37,1.69h12.38v-3.86h-.5s-11.1.05-11.54.05c-.97,0-1.68-.13-2.42-.77-.54-.48-.92-1.17-1.28-2.4-.24-.8-.24-2.23-.22-2.97,2.25,0,11.34.05,12.93,0ZM78.09,22.13c0-1.38.58-4.59,5.95-4.59,2.79,0,4.67.95,5.6,2.87.24.49.33,1.71.33,2.26,0,.33-.09.55-.08.56-.11.06-.31.11-1.28.11h-10.51v-1.21Z"/>
    <path class="st1" d="M109.02,14.11h-9.29s-2.96.05-2.96,3.9v26.27h4.48v-7.11h7.49c1.36,0,4.11-.73,5.67-2.29,1.78-1.78,2.6-4.85,2.6-9.69,0-5.51-1.6-7.63-1.63-7.66-.08-.14-1.98-3.43-6.38-3.43ZM112.34,25.22c0,4.72-.79,6.12-1.48,6.81-.8.8-1.95,1.24-2.62,1.24-.71,0-5.43-.06-6.98-.08v-14.98c0-.22.33-.3.31-.3h6.62c1.36,0,2.27.72,2.8,1.33.37.42,1.34,1.55,1.34,5.98Z"/>
    <path class="st1" d="M183.4,6.81h-4.62v7.19h-3.24v3.9h3.24c0,2.04.04,9.77.04,12.23,0,3.04.88,4.34,1.82,5.29,1.03,1.03,3.1,1.75,5.02,1.75h3.89v-3.9h-3.58c-1.08,0-2.51-.43-2.51-4.12v-11.33h6.1v-3.81h-6.16v-7.19Z"/>
    <rect class="st1" x="192.1" y="13.98" width="4.48" height="23.19"/>
    <path class="st1" d="M173.02,15.59c-.47-.51-1.46-1.59-3.86-1.59h-12.89v3.76h.5s10.63.12,11.62.12c.74,0,1.84.66,1.84,2.49v2.29h-10.49c-3.03,0-5.14,2.84-5.14,6.91s.91,5.29,1.6,5.98c.79.79,1.94,1.53,4.93,1.53h10.38c1.99,0,3.13-1.27,3.13-3.49v-13.33c0-3.04-1.08-4.12-1.49-4.53l-.14-.15ZM170.17,26.57v6.18c0,.29,0,.47-1.03.47h-8.38c-1,0-1.5-1.19-1.5-3.54,0-2.64.73-3.11,2.26-3.11h8.66Z"/>
    <path class="st1" d="M153.63,17.89l.25-.02.15-.16c.13-.15.36-.4.1-3.29l-.04-.45h-6.21v-7.15h-4.62v7.17h-3.17v3.99h3.17c.02,2.33.09,12.12.11,13.38.03,1.67.91,3.05,1.22,3.4l.08.1c.5.61,1.84,2.24,5.52,2.24h3.87v-3.86h-3.65c-1.49,0-2.49-1.46-2.49-3.63v-11.71h5.71Z"/>
    <path class="st1" d="M222.69,25.55c0-1.61,0-6.5-2.36-8.86-1.99-1.99-5.07-2.96-9.42-2.96s-7.43.97-9.43,2.96c-2.36,2.36-2.36,7.25-2.36,8.89v.24c0,1.66-.04,6.07,3.03,9.13,2.77,2.77,8.54,2.44,8.72,2.42.05,0,.34.02.79.02,1.72,0,5.8-.25,7.99-2.44,3.06-3.06,3.04-7.47,3.03-9.13v-.27ZM217.97,25.25c0,3.37-.53,5.75-1.5,6.71-1.19,1.19-2.85,1.7-5.57,1.7s-4.38-.51-5.57-1.7c-.96-.96-1.49-3.35-1.49-6.71,0-2.49.11-4.66,1.49-6.04,1.1-1.1,2.98-1.66,5.57-1.66s4.47.56,5.57,1.66c1.38,1.38,1.5,3.56,1.5,6.04Z"/>
  </g>
</svg>